grf
version=1
nRows=11
nColumns=37
inDegrees=no
endheader
time	ground_force_1_vx	ground_force_1_vy	ground_force_1_vz	ground_force_1_px	ground_force_1_py	ground_force_1_pz	ground_moment_1_mx	ground_moment_1_my	ground_moment_1_mz	ground_force_2_vx	ground_force_2_vy	ground_force_2_vz	ground_force_2_px	ground_force_2_py	ground_force_2_pz	ground_moment_2_mx	ground_moment_2_my	ground_moment_2_mz	ground_force_3_vx	ground_force_3_vy	ground_force_3_vz	ground_force_3_px	ground_force_3_py	ground_force_3_pz	ground_moment_3_mx	ground_moment_3_my	ground_moment_3_mz	ground_force_4_vx	ground_force_4_vy	ground_force_4_vz	ground_force_4_px	ground_force_4_py	ground_force_4_pz	ground_moment_4_mx	ground_moment_4_my	ground_moment_4_mz
      0.00000000	      0.00000000	     -0.00000000	      0.00000000	      0.00000000	      0.00000000	      0.00000000	      0.00000000	      0.00000000	      0.00000000	      0.29761845	    101.57631683	   -658.42425537	   -398.41387449	  -1145.30395445	      0.00000000	      0.00000000	      0.00000000	    699.60013899	      4.79038166	     -8.26460308	   -126.99399567	   -423.40451736	   -707.66168502	      0.00000000	     -0.00000000	     -0.00000000	   -977.32571521	      0.00000000	     -0.00000000	      0.00000000	      0.00000000	      0.00000000	      0.00000000	      0.00000000	      0.00000000	      0.00000000
      0.01000000	      0.00000000	     -0.00000000	      0.00000000	      0.00000000	      0.00000000	      0.00000000	      0.00000000	      0.00000000	      0.00000000	      0.87639803	     98.56865692	   -640.91845703	   -399.21071217	  -1144.90874759	      0.00000000	      0.00000000	      0.00000000	    775.26567210	      4.53056232	    -11.77830736	   -146.91796875	   -423.45809321	   -706.60212688	      0.00000000	      0.00000000	     -0.00000000	  -1255.08871989	      0.00000000	     -0.00000000	      0.00000000	      0.00000000	      0.00000000	      0.00000000	      0.00000000	      0.00000000	      0.00000000
      0.02000000	      0.00000000	     -0.00000000	      0.00000000	      0.00000000	      0.00000000	      0.00000000	      0.00000000	      0.00000000	      0.00000000	      1.21057415	     95.27368927	   -623.59045410	   -399.50120242	  -1145.05565168	      0.00000000	      0.00000000	      0.00000000	    641.10188161	      3.73982897	    -14.67349848	   -164.57356262	   -423.89593778	   -706.32272194	      0.00000000	      0.00000000	     -0.00000000	  -1281.65481601	      0.00000000	     -0.00000000	      0.00000000	      0.00000000	      0.00000000	      0.00000000	      0.00000000	      0.00000000	      0.00000000
      0.03000000	      0.00000000	     -0.00000000	      0.00000000	      0.00000000	      0.00000000	      0.00000000	      0.00000000	      0.00000000	      0.00000000	      1.36939144	     91.43458557	   -603.92913818	   -400.38110498	  -1144.67595686	      0.00000000	      0.00000000	      0.00000000	    607.87240847	      4.50497045	    -17.50878946	   -180.88397217	   -423.30999058	   -704.77462671	      0.00000000	      0.00000000	     -0.00000000	  -1409.51619885	      0.00000000	     -0.00000000	      0.00000000	      0.00000000	      0.00000000	      0.00000000	      0.00000000	      0.00000000	      0.00000000
      0.04000000	      0.00000000	     -0.00000000	      0.00000000	      0.00000000	      0.00000000	      0.00000000	      0.00000000	      0.00000000	      0.00000000	      1.95110476	     87.72371674	   -584.85162354	   -400.21290414	  -1144.22773694	      0.00000000	      0.00000000	      0.00000000	    687.36752870	      4.57421318	    -20.04090349	   -195.09950256	   -425.18085769	   -703.02516487	      0.00000000	      0.00000000	     -0.00000000	  -1403.26915776	      0.00000000	     -0.00000000	      0.00000000	      0.00000000	      0.00000000	      0.00000000	      0.00000000	      0.00000000	      0.00000000
      0.05000000	      0.00000000	     -0.00000000	      0.00000000	      0.00000000	      0.00000000	      0.00000000	      0.00000000	      0.00000000	      0.00000000	      2.05048966	     83.99441528	   -567.52172852	   -400.25067701	  -1144.47917657	      0.00000000	      0.00000000	      0.00000000	    471.91307645	      4.40091225	    -22.25702134	   -206.71922302	   -423.32469279	   -704.31019717	      0.00000000	      0.00000000	     -0.00000000	  -1364.67658407	      0.00000000	     -0.00000000	      0.00000000	      0.00000000	      0.00000000	      0.00000000	      0.00000000	      0.00000000	      0.00000000
      0.06000000	      0.00000000	     -0.00000000	      0.00000000	      0.00000000	      0.00000000	      0.00000000	      0.00000000	      0.00000000	      0.00000000	      1.93399119	     80.92140961	   -549.07495117	   -400.96159779	  -1143.77782101	      0.00000000	      0.00000000	      0.00000000	    418.58395965	      4.00123530	    -23.93517720	   -216.74603271	   -424.21267473	   -706.06912247	      0.00000000	      0.00000000	     -0.00000000	  -1383.89201837	      0.00000000	     -0.00000000	      0.00000000	      0.00000000	      0.00000000	      0.00000000	      0.00000000	      0.00000000	      0.00000000
      0.07000000	      0.00000000	     -0.00000000	      0.00000000	      0.00000000	      0.00000000	      0.00000000	      0.00000000	      0.00000000	      0.00000000	      1.67061377	     77.63761902	   -532.28186035	   -400.61386191	  -1143.91610665	      0.00000000	      0.00000000	      0.00000000	    524.72504968	      3.44496887	    -25.29449302	   -227.29733276	   -424.11507103	   -705.14594880	      0.00000000	      0.00000000	     -0.00000000	  -1550.34296248	      0.00000000	     -0.00000000	      0.00000000	      0.00000000	      0.00000000	      0.00000000	      0.00000000	      0.00000000	      0.00000000
      0.08000000	      0.00000000	     -0.00000000	      0.00000000	      0.00000000	      0.00000000	      0.00000000	      0.00000000	      0.00000000	      0.00000000	      1.30865610	     74.43347168	   -518.38934326	   -400.18162335	  -1143.89449049	      0.00000000	      0.00000000	      0.00000000	    549.20352959	      2.24817047	    -26.17224522	   -239.55952454	   -422.23661257	   -704.76797558	      0.00000000	      0.00000000	     -0.00000000	  -1476.08123223	      0.00000000	     -0.00000000	      0.00000000	      0.00000000	      0.00000000	      0.00000000	      0.00000000	      0.00000000	      0.00000000
      0.09000000	      0.00000000	     -0.00000000	      0.00000000	      0.00000000	      0.00000000	      0.00000000	      0.00000000	      0.00000000	      0.00000000	      1.86162341	     71.47811890	   -501.06524658	   -401.40148046	  -1141.82879407	      0.00000000	      0.00000000	      0.00000000	    530.79866401	      2.46835231	    -27.32001898	   -250.78677368	   -424.08544346	   -705.64163256	      0.00000000	      0.00000000	     -0.00000000	  -1585.24097957	      0.00000000	     -0.00000000	      0.00000000	      0.00000000	      0.00000000	      0.00000000	      0.00000000	      0.00000000	      0.00000000
      0.10000000	      0.00000000	     -0.00000000	      0.00000000	      0.00000000	      0.00000000	      0.00000000	      0.00000000	      0.00000000	      0.00000000	      1.55681789	     69.01840973	   -488.80102539	   -401.28867421	  -1142.73427486	      0.00000000	      0.00000000	      0.00000000	    450.79480904	      2.57261037	    -27.39970230	   -264.26202393	   -424.48313824	   -705.36626677	      0.00000000	      0.00000000	     -0.00000000	  -1426.07890243	      0.00000000	     -0.00000000	      0.00000000	      0.00000000	      0.00000000	      0.00000000	      0.00000000	      0.00000000	      0.00000000
